<svg width="24" height="25" viewBox="0 0 24 25" fill="none" xmlns="http://www.w3.org/2000/svg">
<path d="M11.9697 2.07422C6.46091 2.07422 1.99512 6.71719 1.99512 12.4446C1.99512 18.172 6.46091 22.815 11.9697 22.815C17.4786 22.815 21.9444 18.172 21.9444 12.4446C21.9444 6.71719 17.4786 2.07422 11.9697 2.07422Z" stroke="#282828" stroke-width="1.5" stroke-linecap="round" stroke-linejoin="round"/>
<path d="M4.26074 19.0253C4.26074 19.0253 6.48411 16.0742 11.9702 16.0742C17.4562 16.0742 19.6796 19.0253 19.6796 19.0253" stroke="#282828" stroke-width="1.5" stroke-linecap="round" stroke-linejoin="round"/>
<path d="M11.9699 12.4444C13.6226 12.4444 14.9623 11.0515 14.9623 9.33328C14.9623 7.61506 13.6226 6.22217 11.9699 6.22217C10.3173 6.22217 8.97754 7.61506 8.97754 9.33328C8.97754 11.0515 10.3173 12.4444 11.9699 12.4444Z" stroke="#282828" stroke-width="1.5" stroke-linecap="round" stroke-linejoin="round"/>
</svg>
