<svg width="12" height="19" viewBox="0 0 12 19" fill="none" xmlns="http://www.w3.org/2000/svg">
<path fill-rule="evenodd" clip-rule="evenodd" d="M7.49091 2.14698C7.20074 2.00577 6.57805 1.86578 5.78271 1.87547C4.93976 1.88706 4.10703 2.07368 3.43902 2.62427M7.49091 2.14698C8.24055 2.51427 9.33302 3.23641 9.33302 4.68805C9.33302 6.28444 8.40891 7.00094 6.81666 8.09588C5.95302 8.68977 5.34579 9.32274 4.96301 10.0343C4.57684 10.7522 4.45802 11.4779 4.45802 12.188C4.45802 12.7058 4.87776 13.1255 5.39552 13.1255C5.91329 13.1255 6.33302 12.7058 6.33302 12.188C6.33302 11.6963 6.41296 11.2968 6.61425 10.9226C6.81893 10.5421 7.18787 10.1162 7.87908 9.64084L7.91511 9.61606C9.42503 8.57791 11.208 7.35199 11.208 4.68805C11.208 2.07149 9.16915 0.881126 8.31476 0.462668L8.31399 0.462292L8.31322 0.461917C7.66474 0.145775 6.71867 -0.0111667 5.75901 0.000617701L5.75837 0.000625659L5.75773 0.000634421C4.67809 0.0153735 3.36513 0.255355 2.24643 1.17743L2.2464 1.17745C1.34619 1.91949 0.86736 2.76215 0.615514 3.42784C0.490086 3.75937 0.420649 4.04745 0.382153 4.25954C0.362865 4.36581 0.351211 4.45374 0.344184 4.51942C0.340667 4.55229 0.338299 4.57968 0.336712 4.60111C0.335918 4.61183 0.335318 4.62106 0.334868 4.62876C0.334642 4.63261 0.334454 4.63607 0.334297 4.63914L0.334085 4.64345L0.333995 4.64539L0.333954 4.6463C0.333935 4.64674 0.333916 4.64718 1.27052 4.68805L0.333916 4.64718C0.311344 5.16445 0.71238 5.60208 1.22965 5.62466C1.74362 5.64708 2.17896 5.2513 2.20665 4.73882C2.20686 4.73616 2.20742 4.72942 2.20854 4.71889C2.21109 4.69514 2.21646 4.65252 2.22701 4.59439C2.24819 4.47769 2.28967 4.30153 2.36921 4.0913C2.52728 3.67348 2.83454 3.12255 3.43899 2.62429" fill="#282828"/>
<path d="M5.39551 18.251C6.22393 18.251 6.89551 17.5794 6.89551 16.751C6.89551 15.9225 6.22393 15.251 5.39551 15.251C4.56708 15.251 3.89551 15.9225 3.89551 16.751C3.89551 17.5794 4.56708 18.251 5.39551 18.251Z" fill="#282828"/>
</svg>
